<svg xmlns="http://www.w3.org/2000/svg" width="37.161" height="64" viewBox="0 0 37.161 64"><defs><style>.a{fill:#fff;}</style></defs><g transform="translate(-104)"><g transform="translate(104)"><path class="a" d="M136,0H109.161A5.167,5.167,0,0,0,104,5.161V58.839A5.167,5.167,0,0,0,109.161,64H136a5.167,5.167,0,0,0,5.161-5.161V5.161A5.167,5.167,0,0,0,136,0Zm3.1,58.839a3.1,3.1,0,0,1-3.1,3.1H109.161a3.1,3.1,0,0,1-3.1-3.1V54.71H139.1Zm0-6.194H106.065V11.355H139.1Zm0-43.355H106.065V5.161a3.1,3.1,0,0,1,3.1-3.1H136a3.1,3.1,0,0,1,3.1,3.1Z" transform="translate(-104)"/></g><g transform="translate(119.824 4.396)"><g transform="translate(0 0)"><rect class="a" width="6.154" height="1.758"/></g></g><g transform="translate(113.29 37.161)"><path class="a" d="M193.548,288h-5.161v2.065h4.129v9.29H178.065v-9.29h4.129V288h-5.161A1.031,1.031,0,0,0,176,289.032v11.355a1.031,1.031,0,0,0,1.032,1.032h16.516a1.031,1.031,0,0,0,1.032-1.032V289.032A1.031,1.031,0,0,0,193.548,288Z" transform="translate(-176 -288)"/></g><g transform="translate(117.419 15.484)"><path class="a" d="M216.258,120v6.194h-2.065V120h-2.065v6.194h-2.065V120H208v9.29a3.1,3.1,0,0,0,3.1,3.1h1.032v15.057l-1.335-1.335-1.46,1.46,3.1,3.1a1.032,1.032,0,0,0,1.46,0l3.1-3.1-1.46-1.46-1.335,1.335V132.387h1.032a3.1,3.1,0,0,0,3.1-3.1V120Zm0,9.29a1.033,1.033,0,0,1-1.032,1.032H211.1a1.033,1.033,0,0,1-1.032-1.032v-1.032h6.194Z" transform="translate(-208 -120)"/></g></g></svg>