<svg xmlns="http://www.w3.org/2000/svg" width="27.417" height="26.894" viewBox="0 0 27.417 26.894"><defs><style>.a{fill:#0e5bce;}</style></defs><g transform="translate(0 -4.035)"><g transform="translate(0 4.035)"><g transform="translate(0)"><path class="a" d="M27.24,13.169A.609.609,0,0,0,26.732,13H19.459V9.786a5.751,5.751,0,0,0-11.5,0V13H.684c-.2,0-.406,0-.507.169a.575.575,0,0,0-.169.507l2.537,13.87a4.127,4.127,0,0,0,3.992,3.383H20.88a4.161,4.161,0,0,0,3.992-3.417l2.537-13.836A.575.575,0,0,0,27.24,13.169ZM9.31,9.786a4.4,4.4,0,1,1,8.8,0V13H9.31ZM23.518,27.343a2.706,2.706,0,0,1-2.639,2.233H6.536A2.706,2.706,0,0,1,3.9,27.343L1.5,14.353H25.92Z" transform="translate(0 -4.035)"/><path class="a" d="M280.3,216.4a.677.677,0,0,0,.677-.677v-2.03a.677.677,0,1,0-1.353,0v2.03A.676.676,0,0,0,280.3,216.4Z" transform="translate(-261.521 -199.482)"/><path class="a" d="M123.569,216.4a.677.677,0,0,0,.677-.677v-2.03a.677.677,0,1,0-1.353,0v2.03A.677.677,0,0,0,123.569,216.4Z" transform="translate(-114.935 -199.482)"/></g></g></g></svg>