<svg xmlns="http://www.w3.org/2000/svg" width="25" height="25" viewBox="0 0 25 25"><defs><style>.a{fill:#fbbd00;}.b{fill:#0f9d58;}.c{fill:#31aa52;}.d{fill:#3c79e6;}.e{fill:#cf2d48;}.f{fill:#eb4132;}</style></defs><path class="a" d="M5.859,107.822a6.6,6.6,0,0,1,.934-3.392v-4.214H2.579a12.506,12.506,0,0,0,0,15.213H6.793v-4.214A6.6,6.6,0,0,1,5.859,107.822Z" transform="translate(0 -95.322)"/><path class="b" d="M198.93,373.891,196,376.82l2.93,2.93a12.405,12.405,0,0,0,7.607-2.579v-4.21h-4.21A6.64,6.64,0,0,1,198.93,373.891Z" transform="translate(-186.43 -354.75)"/><path class="c" d="M57.037,325.477l-4.214,4.214a12.7,12.7,0,0,0,1.082,1.232,12.418,12.418,0,0,0,8.839,3.661v-5.859A6.643,6.643,0,0,1,57.037,325.477Z" transform="translate(-50.244 -309.585)"/><path class="d" d="M268.5,200.189a12.613,12.613,0,0,0-.2-2.264l-.11-.6H256v5.859h5.93A6.61,6.61,0,0,1,259.4,205.9l4.21,4.21a12.707,12.707,0,0,0,1.232-1.082A12.418,12.418,0,0,0,268.5,200.189Z" transform="translate(-243.5 -187.689)"/><path class="e" d="M203.625,7.8l.518.518,4.143-4.143-.518-.518A12.418,12.418,0,0,0,198.93,0L196,2.93l2.93,2.93A6.6,6.6,0,0,1,203.625,7.8Z" transform="translate(-186.43)"/><path class="f" d="M62.743,5.859V0A12.419,12.419,0,0,0,53.9,3.661a12.687,12.687,0,0,0-1.082,1.232l4.214,4.214a6.644,6.644,0,0,1,5.707-3.248Z" transform="translate(-50.243 0)"/></svg>