<svg xmlns="http://www.w3.org/2000/svg" width="64" height="64" viewBox="0 0 64 64"><defs><style>.a{fill:#fff;}</style></defs><path class="a" d="M57.333,0H6.667A6.675,6.675,0,0,0,0,6.667V57.333A6.675,6.675,0,0,0,6.667,64H57.333A6.675,6.675,0,0,0,64,57.333V6.667A6.674,6.674,0,0,0,57.333,0Zm4,57.333a4,4,0,0,1-4,4H6.667a4,4,0,0,1-4-4V6.667a4,4,0,0,1,4-4H57.333a4,4,0,0,1,4,4V57.333Z"/><g transform="translate(5.333 10.667)"><rect class="a" width="53.333" height="2.667"/></g><g transform="translate(6.667 5.333)"><rect class="a" width="2.667" height="2.667"/></g><g transform="translate(12 5.333)"><rect class="a" width="2.667" height="2.667"/></g><g transform="translate(54.667 5.333)"><rect class="a" width="2.667" height="2.667"/></g><g transform="translate(22.667 16)"><path class="a" d="M198.666,128h-16a1.333,1.333,0,0,0-1.333,1.333v5.333A1.333,1.333,0,0,0,182.666,136h16A1.333,1.333,0,0,0,200,134.667v-5.333A1.333,1.333,0,0,0,198.666,128Zm-1.333,5.333H184v-2.667h13.333v2.667Z" transform="translate(-181.333 -128)"/></g><g transform="translate(8 48)"><path class="a" d="M78.667,384H65.333A1.333,1.333,0,0,0,64,385.333v8a1.333,1.333,0,0,0,1.333,1.333H78.667A1.333,1.333,0,0,0,80,393.333v-8A1.334,1.334,0,0,0,78.667,384Zm-1.333,8H66.667v-5.333H77.333V392Z" transform="translate(-64 -384)"/></g><g transform="translate(8 32)"><path class="a" d="M73.333,256h-8A1.333,1.333,0,0,0,64,257.333v8a1.333,1.333,0,0,0,1.333,1.333h8a1.333,1.333,0,0,0,1.333-1.333v-8A1.333,1.333,0,0,0,73.333,256ZM72,264H66.667v-5.333H72Z" transform="translate(-64 -256)"/></g><g transform="translate(42.667 32)"><path class="a" d="M350.666,256h-8a1.333,1.333,0,0,0-1.333,1.333v8a1.333,1.333,0,0,0,1.333,1.333h8A1.333,1.333,0,0,0,352,265.333v-8A1.333,1.333,0,0,0,350.666,256Zm-1.333,8H344v-5.333h5.333Z" transform="translate(-341.333 -256)"/></g><g transform="translate(40 48)"><path class="a" d="M334.667,384H321.333A1.333,1.333,0,0,0,320,385.333v8a1.333,1.333,0,0,0,1.333,1.333h13.333A1.333,1.333,0,0,0,336,393.333v-8A1.334,1.334,0,0,0,334.667,384Zm-1.333,8H322.667v-5.333h10.667Z" transform="translate(-320 -384)"/></g><g transform="translate(25.333 30.667)"><path class="a" d="M209.334,245.333A6.667,6.667,0,1,0,216,252,6.667,6.667,0,0,0,209.334,245.333Zm0,10.667a4,4,0,1,1,4-4A4,4,0,0,1,209.334,256Z" transform="translate(-202.667 -245.333)"/></g><g transform="translate(30.667 26.667)"><rect class="a" width="2.667" height="5.333"/></g><g transform="translate(26.667 42.667)"><path class="a" d="M217.333,341.333v9.333h-4v2.667h5.333A1.333,1.333,0,0,0,220,352V341.333Z" transform="translate(-213.333 -341.333)"/></g><g transform="translate(32 52)"><rect class="a" width="5.333" height="2.667"/></g><g transform="translate(17.333 36)"><rect class="a" width="5.333" height="2.667"/></g><g transform="translate(46.667 41.333)"><rect class="a" width="2.667" height="4"/></g><g transform="translate(30.667 36)"><rect class="a" width="2.667" height="2.667"/></g><g transform="translate(6.667 22.667)"><rect class="a" width="10.667" height="2.667"/></g><g transform="translate(14.667 17.333)"><rect class="a" width="2.667" height="2.667"/></g><g transform="translate(9.333 17.333)"><rect class="a" width="2.667" height="2.667"/></g><g transform="translate(46.667 22.667)"><rect class="a" width="10.667" height="2.667"/></g><g transform="translate(46.667 17.333)"><rect class="a" width="2.667" height="2.667"/></g><g transform="translate(52 17.333)"><rect class="a" width="2.667" height="2.667"/></g></svg>