<svg xmlns="http://www.w3.org/2000/svg" width="64.012" height="64.01" viewBox="0 0 64.012 64.01"><defs><style>.a{fill:#fff;}</style></defs><g transform="translate(-8 -8)"><path class="a" d="M56.524,8a15.5,15.5,0,0,0-13.692,8.259H12.13A4.134,4.134,0,0,0,8,20.389V67.88a4.134,4.134,0,0,0,4.13,4.13H59.621a4.134,4.134,0,0,0,4.13-4.13v-30.7A15.484,15.484,0,0,0,56.524,8ZM10.065,20.389a2.068,2.068,0,0,1,2.065-2.065H41.923a15.431,15.431,0,0,0-.85,4.13H10.065ZM61.686,67.88a2.068,2.068,0,0,1-2.065,2.065H12.13a2.068,2.068,0,0,1-2.065-2.065V24.519H41.072A15.486,15.486,0,0,0,61.686,38.087ZM56.524,36.908A13.421,13.421,0,1,1,69.945,23.486,13.421,13.421,0,0,1,56.524,36.908Z"/><path class="a" d="M342.4,63.16l-1.032-3.1a1.032,1.032,0,0,0-.98-.706v-4.13a4.132,4.132,0,0,0-2.065-3.575V51.1a3.1,3.1,0,0,0-6.195,0v.555a4.132,4.132,0,0,0-2.065,3.575v4.13a1.032,1.032,0,0,0-.98.706l-1.032,3.1a1.032,1.032,0,0,0,.979,1.359h3.1a3.1,3.1,0,0,0,6.195,0h3.1a1.032,1.032,0,0,0,.979-1.359Zm-7.174-13.095a1.034,1.034,0,0,1,1.032,1.032h-2.065A1.034,1.034,0,0,1,335.226,50.065Zm-3.1,5.162a2.068,2.068,0,0,1,2.065-2.065h2.065a2.068,2.068,0,0,1,2.065,2.065v4.13h-6.195Zm3.1,10.324a1.034,1.034,0,0,1-1.032-1.032h2.065A1.034,1.034,0,0,1,335.226,65.551Zm-4.762-3.1.345-1.032h8.835l.345,1.032Z" transform="translate(-278.703 -34.838)"/><path class="a" d="M281.551,360H265.032A1.032,1.032,0,0,0,264,361.032v6.195a1.032,1.032,0,0,0,1.032,1.032h16.519a1.032,1.032,0,0,0,1.032-1.032v-6.195A1.032,1.032,0,0,0,281.551,360Zm-1.032,6.195H266.065v-4.13h14.454Z" transform="translate(-222.963 -306.573)"/><path class="a" d="M309.421,432H297.032a1.032,1.032,0,1,0,0,2.065h12.389a1.032,1.032,0,1,0,0-2.065Z" transform="translate(-250.833 -369.282)"/><path class="a" d="M358.195,456h-5.162a1.032,1.032,0,0,0,0,2.065h5.162a1.032,1.032,0,0,0,0-2.065Z" transform="translate(-299.606 -390.184)"/><path class="a" d="M296,305.032a1.032,1.032,0,0,0,1.032,1.032h12.389a1.032,1.032,0,1,0,0-2.065H297.032A1.032,1.032,0,0,0,296,305.032Z" transform="translate(-250.833 -257.8)"/><path class="a" d="M358.195,328h-5.162a1.032,1.032,0,1,0,0,2.065h5.162a1.032,1.032,0,1,0,0-2.065Z" transform="translate(-299.606 -278.703)"/><circle class="a" cx="1" cy="1" r="1" transform="translate(11 19)"/><circle class="a" cx="1" cy="1" r="1" transform="translate(14 19)"/><circle class="a" cx="1" cy="1" r="1" transform="translate(17 19)"/><path class="a" d="M54.454,248H41.032a1.032,1.032,0,1,0,0,2.065H54.454a1.032,1.032,0,1,0,0-2.065Z" transform="translate(-27.87 -209.027)"/><path class="a" d="M41.032,274.065h4.13a1.032,1.032,0,0,0,0-2.065h-4.13a1.032,1.032,0,0,0,0,2.065Z" transform="translate(-27.87 -229.93)"/><path class="a" d="M98.065,274.065a1.032,1.032,0,0,0,0-2.065H97.032a1.032,1.032,0,1,0,0,2.065Z" transform="translate(-76.643 -229.93)"/><path class="a" d="M54.454,296H41.032a1.032,1.032,0,0,0,0,2.065H54.454a1.032,1.032,0,0,0,0-2.065Z" transform="translate(-27.87 -250.833)"/><path class="a" d="M54.454,320H41.032a1.032,1.032,0,0,0,0,2.065H54.454a1.032,1.032,0,0,0,0-2.065Z" transform="translate(-27.87 -271.736)"/><path class="a" d="M62.713,160H41.032A1.032,1.032,0,0,0,40,161.032v8.259a1.032,1.032,0,0,0,1.032,1.032H62.713a1.032,1.032,0,0,0,1.032-1.032v-8.259A1.032,1.032,0,0,0,62.713,160Zm-1.032,8.259H42.065v-6.195H61.681Z" transform="translate(-27.87 -132.384)"/></g></svg>